<?xml version="1.0" encoding="UTF-8" standalone="no"?>
<svg xmlns="http://www.w3.org/2000/svg" id="svg6" preserveAspectRatio="xMidYMid meet" viewBox="0 0 24 24" height="24" width="24">
  <g
     transform="matrix(0.00245058,0,0,-0.00245168,-0.0026006,24.014505)"
     fill="#FFFFFF"
     stroke="none"
     id="g4">
    <path
       d="M 3455,9745 C 2350,9378 1435,8677 807,7719 -71,6378 -243,4683 347,3175 415,3002 604,2614 697,2460 1040,1888 1496,1380 2015,995 2537,607 3130,322 3750,161 4182,50 4535,6 5005,6 c 314,-1 435,7 704,45 1297,181 2478,882 3275,1943 301,401 543,849 714,1321 54,151 103,305 96,305 -2,0 -61,-31 -131,-68 -575,-307 -1155,-480 -1790,-533 -185,-15 -661,-7 -843,15 -917,111 -1739,469 -2435,1061 -130,110 -381,361 -498,499 -504,588 -843,1280 -1001,2041 -93,449 -114,1001 -55,1460 68,532 251,1093 515,1578 36,65 64,120 62,122 -2,2 -75,-20 -163,-50 z"
       id="path2" />
  </g>
</svg>
