<?xml version="1.0" encoding="UTF-8" standalone="no"?>
<svg xmlns="http://www.w3.org/2000/svg" xmlns:sodipodi="http://sodipodi.sourceforge.net/DTD/sodipodi-0.dtd" height="24" width="24" viewBox="0 0 24 24">
  <g
     transform="scale(0.16)"
     stroke="none"
     stroke-width="1"
     fill="none"
     fill-rule="evenodd"
     id="g8">
    <path
       d="m 42.1335,79.116 h 65.733 c 2.559,0 4.6335,2.0745 4.6335,4.6335 0,2.559 -2.0745,4.6335 -4.6335,4.6335 h -65.733 c -2.559,0 -4.6335,-2.0745 -4.6335,-4.6335 0,-2.559 2.0745,-4.6335 4.6335,-4.6335 z M 37.5,62.253 v 0 c 0,-2.559 2.0745,-4.6335 4.6335,-4.6335 h 65.733 c 2.559,0 4.6335,2.0745 4.6335,4.6335 0,2.559 -2.0745,4.6335 -4.6335,4.6335 H 42.1335 C 39.5745,66.8865 37.5,64.812 37.5,62.253 Z m 0,-21.4965 v 0 c 0,-2.559 2.0745,-4.6335 4.6335,-4.6335 h 65.733 c 2.559,0 4.6335,2.0745 4.6335,4.6335 0,2.559 -2.0745,4.6335 -4.6335,4.6335 H 42.1335 C 39.5745,45.39 37.5,43.3155 37.5,40.7565 Z M 133.233,96 c 0,3.1605 -2.5725,5.733 -5.733,5.733 H 101.5935 L 75,124.3365 48.4065,101.733 H 22.5 c -3.1605,0 -5.733,-2.5725 -5.733,-5.733 V 28.5 c 0,-3.162 2.5725,-5.733 5.733,-5.733 h 105 c 3.1605,0 5.733,2.571 5.733,5.733 z M 127.5,13.5 h -105 c -8.2845,0 -15,6.7155 -15,15 V 96 c 0,8.2845 6.7155,15 15,15 H 45 l 30,25.5 30,-25.5 h 22.5 c 8.2845,0 15,-6.7155 15,-15 V 28.5 c 0,-8.2845 -6.7155,-15 -15,-15 z"
       fill="#000000"
       id="path6"
       sodipodi:nodetypes="ssssssssssssssssssssssssscccsssssssssssscccssss"
       style="stroke-width:1.5" />
  </g>
</svg>
