<?xml version="1.0" encoding="UTF-8" standalone="no"?>
<svg
   xmlns:dc="http://purl.org/dc/elements/1.1/"
   xmlns:cc="http://creativecommons.org/ns#"
   xmlns:rdf="http://www.w3.org/1999/02/22-rdf-syntax-ns#"
   xmlns:svg="http://www.w3.org/2000/svg"
   xmlns="http://www.w3.org/2000/svg"
   xmlns:sodipodi="http://sodipodi.sourceforge.net/DTD/sodipodi-0.dtd"
   xmlns:inkscape="http://www.inkscape.org/namespaces/inkscape"
   width="216"
   height="216"
   version="1.1"
   id="svg6386"
   sodipodi:docname="unofficial_sticky_notes_converted-text-overlay.svg"
   inkscape:version="0.92.4 (5da689c313, 2019-01-14)"
   inkscape:export-filename="C:\Users\Andrew\Documents\GitHub\Unofficial-Sticky-Notes\graphics\icons\text overlays\no padding\256.png"
   inkscape:export-xdpi="113.77778"
   inkscape:export-ydpi="113.77778">
  <metadata
     id="metadata6392">
    <rdf:RDF>
      <cc:Work
         rdf:about="">
        <dc:format>image/svg+xml</dc:format>
        <dc:type
           rdf:resource="http://purl.org/dc/dcmitype/StillImage" />
        <dc:title></dc:title>
      </cc:Work>
    </rdf:RDF>
  </metadata>
  <defs
     id="defs6390" />
  <sodipodi:namedview
     pagecolor="#ffffff"
     bordercolor="#666666"
     borderopacity="1"
     objecttolerance="10"
     gridtolerance="10"
     guidetolerance="10"
     inkscape:pageopacity="0"
     inkscape:pageshadow="2"
     inkscape:window-width="1600"
     inkscape:window-height="877"
     id="namedview6388"
     showgrid="true"
     inkscape:zoom="2"
     inkscape:cx="-77.89652"
     inkscape:cy="126.88789"
     inkscape:window-x="-8"
     inkscape:window-y="-8"
     inkscape:window-maximized="1"
     inkscape:current-layer="svg6386"
     inkscape:snap-grids="true">
    <inkscape:grid
       type="xygrid"
       id="grid7214"
       originx="-20"
       originy="-20" />
  </sodipodi:namedview>
  <g
     inkscape:groupmode="layer"
     id="layer1"
     inkscape:label="Unofficial"
     transform="translate(-20,-20)" />
  <g
     aria-label="Unofficial"
     transform="matrix(0.71050434,-0.70372547,0.71050434,0.70372547,0,0)"
     style="font-style:normal;font-weight:normal;font-size:54.72571182px;line-height:1.25;font-family:sans-serif;letter-spacing:0px;word-spacing:0px;fill:#000000;fill-opacity:1;stroke:#ffffff;stroke-width:2.63393116;stroke-linecap:butt;stroke-linejoin:miter;stroke-miterlimit:4;stroke-dasharray:none;stroke-opacity:1;image-rendering:auto"
     id="text7212">
    <path
       d="m -96.869615,154.77535 q 0,9.21893 -4.222005,13.70815 -4.19528,4.46249 -12.95994,4.46249 -8.1768,0 -12.42552,-4.46249 -4.222,-4.48922 -4.222,-13.49438 v -21.02985 h 11.59714 v 21.45739 q 0,3.68758 1.3628,5.69169 1.38952,1.97739 3.95479,1.97739 2.59199,0 3.92807,-1.8705 1.3628,-1.87051 1.3628,-5.53136 v -21.72461 h 11.623865 z"
       style="font-style:normal;font-variant:normal;font-weight:900;font-stretch:normal;font-size:54.72571182px;font-family:'Segoe UI';-inkscape-font-specification:'Segoe UI, Heavy';font-variant-ligatures:normal;font-variant-caps:normal;font-variant-numeric:normal;font-feature-settings:normal;text-align:start;writing-mode:lr-tb;text-anchor:start;stroke:#ffffff;stroke-width:2.63393116;stroke-linecap:butt;stroke-linejoin:miter;stroke-miterlimit:4;stroke-dasharray:none;stroke-opacity:1"
       id="path6882" />
    <path
       d="m -73.060724,172.27795 v -14.93734 q 0,-2.53854 -0.774925,-3.63413 -0.748203,-1.1223 -2.458381,-1.1223 -1.469685,0 -2.298052,1.14903 -0.828368,1.14902 -0.828368,2.93937 v 15.60537 H -90.803826 V 144.9151 h 11.383376 v 4.27544 h 0.106886 q 1.362798,-2.35149 3.660851,-3.63412 2.298052,-1.30936 4.996928,-1.30936 8.978437,0 8.978437,11.32993 v 16.70096 z"
       style="font-style:normal;font-variant:normal;font-weight:900;font-stretch:normal;font-size:54.72571182px;font-family:'Segoe UI';-inkscape-font-specification:'Segoe UI, Heavy';font-variant-ligatures:normal;font-variant-caps:normal;font-variant-numeric:normal;font-feature-settings:normal;text-align:start;writing-mode:lr-tb;text-anchor:start;stroke:#ffffff;stroke-width:2.63393116;stroke-linecap:butt;stroke-linejoin:miter;stroke-miterlimit:4;stroke-dasharray:none;stroke-opacity:1"
       id="path6884" />
    <path
       d="m -26.057534,158.11554 q 0,6.92088 -4.195281,10.87566 -4.16856,3.95479 -11.677313,3.95479 -7.455309,0 -11.623869,-3.8479 -4.141839,-3.87462 -4.141839,-10.66189 0,-4.35561 1.950672,-7.5622 1.950673,-3.20658 5.558081,-4.91676 3.607407,-1.71018 8.310398,-1.71018 4.86332,0 8.417285,1.79034 3.580686,1.79035 5.477915,4.97021 1.923951,3.17986 1.923951,7.10793 z m -11.543705,0.0534 q 0,-5.5848 -4.275446,-5.5848 -4.275446,0 -4.275446,5.85202 0,6.17267 4.328889,6.17267 4.222003,0 4.222003,-6.43989 z"
       style="font-style:normal;font-variant:normal;font-weight:900;font-stretch:normal;font-size:54.72571182px;font-family:'Segoe UI';-inkscape-font-specification:'Segoe UI, Heavy';font-variant-ligatures:normal;font-variant-caps:normal;font-variant-numeric:normal;font-feature-settings:normal;text-align:start;writing-mode:lr-tb;text-anchor:start;stroke:#ffffff;stroke-width:2.63393116;stroke-linecap:butt;stroke-linejoin:miter;stroke-miterlimit:4;stroke-dasharray:none;stroke-opacity:1"
       id="path6886" />
    <path
       d="m -0.67208106,140.05178 q -1.76362154,-0.6146 -3.28674934,-0.6146 -1.8972292,0 -2.8057615,0.9887 -0.9085324,0.96198 -0.9085324,2.61871 v 1.87051 h 6.3330048 v 7.88285 h -6.3330048 v 19.48 H -19.0565 v -19.48 h -4.596105 v -7.88285 h 4.596105 v -2.51183 q 0,-3.34019 1.549849,-5.87874 1.54985,-2.56526 4.489219,-3.9815 2.966091,-1.41625 7.1880939,-1.41625 3.0462555,0 5.15725704,0.58788 z"
       style="font-style:normal;font-variant:normal;font-weight:900;font-stretch:normal;font-size:54.72571182px;font-family:'Segoe UI';-inkscape-font-specification:'Segoe UI, Heavy';font-variant-ligatures:normal;font-variant-caps:normal;font-variant-numeric:normal;font-feature-settings:normal;text-align:start;writing-mode:lr-tb;text-anchor:start;stroke:#ffffff;stroke-width:2.63393116;stroke-linecap:butt;stroke-linejoin:miter;stroke-miterlimit:4;stroke-dasharray:none;stroke-opacity:1"
       id="path6888" />
    <path
       d="m 22.94976,140.05178 q -1.763621,-0.6146 -3.286749,-0.6146 -1.897229,0 -2.805762,0.9887 -0.908532,0.96198 -0.908532,2.61871 v 1.87051 h 6.333005 v 7.88285 h -6.333005 v 19.48 H 4.5653416 v -19.48 H -0.03076315 V 144.9151 H 4.5653416 v -2.51183 q 0,-3.34019 1.5498492,-5.87874 1.5498493,-2.56526 4.4892182,-3.9815 2.966091,-1.41625 7.188094,-1.41625 3.046256,0 5.157257,0.58788 z"
       style="font-style:normal;font-variant:normal;font-weight:900;font-stretch:normal;font-size:54.72571182px;font-family:'Segoe UI';-inkscape-font-specification:'Segoe UI, Heavy';font-variant-ligatures:normal;font-variant-caps:normal;font-variant-numeric:normal;font-feature-settings:normal;text-align:start;writing-mode:lr-tb;text-anchor:start;stroke:#ffffff;stroke-width:2.63393116;stroke-linecap:butt;stroke-linejoin:miter;stroke-miterlimit:4;stroke-dasharray:none;stroke-opacity:1"
       id="path6890" />
    <path
       d="m 37.539722,137.53995 q 0,2.40494 -1.763622,3.90135 -1.7369,1.4964 -4.596105,1.4964 -2.77904,0 -4.569383,-1.54984 -1.763621,-1.54985 -1.763621,-3.84791 0,-2.35149 1.710178,-3.79446 1.7369,-1.46968 4.622826,-1.46968 2.859205,0 4.596105,1.46968 1.763622,1.44297 1.763622,3.79446 z m -12.051414,34.738 V 144.9151 h 11.383375 v 27.36285 z"
       style="font-style:normal;font-variant:normal;font-weight:900;font-stretch:normal;font-size:54.72571182px;font-family:'Segoe UI';-inkscape-font-specification:'Segoe UI, Heavy';font-variant-ligatures:normal;font-variant-caps:normal;font-variant-numeric:normal;font-feature-settings:normal;text-align:start;writing-mode:lr-tb;text-anchor:start;stroke:#ffffff;stroke-width:2.63393116;stroke-linecap:butt;stroke-linejoin:miter;stroke-miterlimit:4;stroke-dasharray:none;stroke-opacity:1"
       id="path6892" />
    <path
       d="m 64.929302,171.50303 q -1.095583,0.64132 -3.447078,1.04214 -2.351496,0.40082 -5.424473,0.40082 -4.328889,0 -7.749246,-1.7369 -3.393636,-1.76362 -5.264143,-4.91676 -1.870508,-3.15314 -1.870508,-7.08121 0,-4.70299 1.977394,-8.04318 2.004115,-3.36692 5.691688,-5.13054 3.687572,-1.79034 8.550892,-1.79034 2.672154,0 4.783156,0.34738 2.137723,0.34738 2.752318,0.80165 v 8.87155 q -0.855089,-0.66804 -2.458381,-1.17575 -1.603293,-0.50771 -2.966091,-0.50771 -3.340193,0 -5.077093,1.60329 -1.710178,1.57657 -1.710178,4.4625 0,2.83248 1.683457,4.40905 1.710178,1.54985 4.676269,1.54985 3.179863,0 5.852017,-1.52313 z"
       style="font-style:normal;font-variant:normal;font-weight:900;font-stretch:normal;font-size:54.72571182px;font-family:'Segoe UI';-inkscape-font-specification:'Segoe UI, Heavy';font-variant-ligatures:normal;font-variant-caps:normal;font-variant-numeric:normal;font-feature-settings:normal;text-align:start;writing-mode:lr-tb;text-anchor:start;stroke:#ffffff;stroke-width:2.63393116;stroke-linecap:butt;stroke-linejoin:miter;stroke-miterlimit:4;stroke-dasharray:none;stroke-opacity:1"
       id="path6894" />
    <path
       d="m 81.576816,137.53995 q 0,2.40494 -1.763622,3.90135 -1.7369,1.4964 -4.596105,1.4964 -2.77904,0 -4.569383,-1.54984 -1.763621,-1.54985 -1.763621,-3.84791 0,-2.35149 1.710178,-3.79446 1.7369,-1.46968 4.622826,-1.46968 2.859205,0 4.596105,1.46968 1.763622,1.44297 1.763622,3.79446 z m -12.051414,34.738 V 144.9151 h 11.383375 v 27.36285 z"
       style="font-style:normal;font-variant:normal;font-weight:900;font-stretch:normal;font-size:54.72571182px;font-family:'Segoe UI';-inkscape-font-specification:'Segoe UI, Heavy';font-variant-ligatures:normal;font-variant-caps:normal;font-variant-numeric:normal;font-feature-settings:normal;text-align:start;writing-mode:lr-tb;text-anchor:start;stroke:#ffffff;stroke-width:2.63393116;stroke-linecap:butt;stroke-linejoin:miter;stroke-miterlimit:4;stroke-dasharray:none;stroke-opacity:1"
       id="path6896" />
    <path
       d="m 101.59125,172.27795 v -4.16856 h -0.10688 q -2.725602,4.8366 -8.337125,4.8366 -3.874623,0 -6.065789,-2.29805 -2.191166,-2.29805 -2.191166,-6.14595 0,-8.06991 9.913691,-9.35254 l 6.787269,-0.88181 q 0,-1.33608 -1.20247,-2.19117 -1.202467,-0.85509 -3.233304,-0.85509 -4.596105,0 -9.699919,2.61871 v -7.40186 q 2.217888,-0.96198 5.558081,-1.57657 3.340192,-0.6146 5.718409,-0.6146 6.974323,0 10.100743,2.99281 3.15314,2.96609 3.15314,9.94041 v 15.09767 z m -6.733826,-9.29909 q 0,1.1223 0.69476,1.84378 0.721481,0.72149 2.030837,0.72149 1.790343,0 2.885929,-1.33608 1.1223,-1.33608 1.1223,-3.42036 v -1.04214 l -3.8479,0.53443 q -2.885926,0.48099 -2.885926,2.69888 z"
       style="font-style:normal;font-variant:normal;font-weight:900;font-stretch:normal;font-size:54.72571182px;font-family:'Segoe UI';-inkscape-font-specification:'Segoe UI, Heavy';font-variant-ligatures:normal;font-variant-caps:normal;font-variant-numeric:normal;font-feature-settings:normal;text-align:start;writing-mode:lr-tb;text-anchor:start;stroke:#ffffff;stroke-width:2.63393116;stroke-linecap:butt;stroke-linejoin:miter;stroke-miterlimit:4;stroke-dasharray:none;stroke-opacity:1"
       id="path6898" />
    <path
       d="M 117.08975,172.27795 V 131.7681 h 11.38337 v 40.50985 z"
       style="font-style:normal;font-variant:normal;font-weight:900;font-stretch:normal;font-size:54.72571182px;font-family:'Segoe UI';-inkscape-font-specification:'Segoe UI, Heavy';font-variant-ligatures:normal;font-variant-caps:normal;font-variant-numeric:normal;font-feature-settings:normal;text-align:start;writing-mode:lr-tb;text-anchor:start;stroke:#ffffff;stroke-width:2.63393116;stroke-linecap:butt;stroke-linejoin:miter;stroke-miterlimit:4;stroke-dasharray:none;stroke-opacity:1"
       id="path6900" />
  </g>
</svg>
