<?xml version="1.0" standalone="yes"?>
<svg xmlns="http://www.w3.org/2000/svg" width="416" height="416">
<path style="fill:#ffffff; stroke:none;" d="M0 0L0 416L416 416L416 0L0 0z"/>
<path style="fill:#010101; stroke:none;" d="M38 26L39 27L38 26z"/>
<path style="fill:#b3b3b3; stroke:none;" d="M208 390L208 262L208 234L208 229L208 227L208.028 226L208.083 225L208.417 223L208.694 222L209.389 220L209.833 219L210.278 218L211.472 216L213.083 214.028L214.028 213.083L216 211.472L218 210.278L219 209.833L221 209.028L223 208.417L225 208.083L226 208.028L227 208L229 208L234 208L261 208L390 208L390 81L390 50L390 47L390 45L390 43L389.917 41L389.778 40L389.583 39L389.306 38L388.583 36L388.111 35L386.972 33.0278L386.306 32.0833L384.778 30.4167L383.917 29.6945L382 28.4167L381 27.8889L379 27.0278L378 26.6945L377 26.4167L376 26.2222L375 26.0833L373 26L371 26L370 26L368 26L363 26L307 26L104 26L54 26L47 26L45 26L44 26L42 26.0278L41 26.0833L39 26.4167L38 26.6945L36 27.4167L35 27.8889L33.0278 29.0278L31.2222 30.4167L29.6944 32.0833L28.4167 34L27.8889 35L27.0278 37L26.6944 38L26.4167 39L26.2222 40L26.0833 41L26 43L26 44L26 46L26 54L26 108L26 314L26 364L26 369L26 371L26 373L26.0833 375L26.2222 376L26.4167 377L26.6944 378L27.0278 379L27.8889 381L28.4167 382L29.6944 383.917L31.2222 385.583L33.0278 386.972L35 388.111L36 388.583L38 389.306L39 389.583L41 389.917L42 389.972L44 390L46 390L49 390L79 390L208 390z"/>
<path style="fill:#010101; stroke:none;" d="M377 26L378 27L377 26M26 38L27 39L26 38M208 389L209.5 388.222L210.056 387.694L211.056 386.889L212 385.972L213 385L215 383L217 381L222 376L244 354L316 282L365 233L380 218L383 215L384 214L385.972 212L386.889 211.056L387.694 210.056L388.222 209.5L389 208L260 208L232 208L229 208L227 208L225 208.028L224 208.083L222 208.417L221 208.694L219 209.389L218 209.833L217 210.278L215 211.472L213.083 213.083L211.472 215L210.278 217L209.833 218L209.389 219L208.694 221L208.417 222L208.083 224L208.028 225L208 227L208 229L208 232L208 260L208 389z"/>
<path style="fill:#737373; stroke:none;" d="M389 208L266 331L228 369L216 381L214 383L213 384L211.028 386L210.111 386.944L209.306 387.944L208.778 388.5L208 390L330 390L363 390L370 390L372 390L373 390L375 389.917L377 389.583L378 389.306L379 388.972L381 388.111L382 387.583L383.917 386.306L384.778 385.583L386.306 383.917L387.583 382L388.583 380L389.306 378L389.583 377L389.778 376L389.917 375L390 373L390 371L390 369L390 366L390 348L390 247L390 220L390 215L390 213L389.972 211.028L389.944 210.111L389.75 209.306L389.722 208.778L389 208z"/>
</svg>
